<svg width="200px" height="200px" class="animated" id="freepik_stories-robot-face" xmlns="http://www.w3.org/2000/svg" viewBox="0 0 500 500" version="1.1"><style>@keyframes floating{0%,to{opacity:1;transform:translateY(0)}50%{transform:translateY(-10px)}}svg#freepik_stories-robot-face:not(.animated) .animable{opacity:0}</style><g id="freepik--robot-face--inject-89" class="animable animator-active" style="transform-origin:244.695px 260.542px;animation:1.5s Infinite linear floating;animation-delay:0s"><path d="M272.59 451.47c-26.39 7-66.46-6.45-85.43-38.84-1.28-2.22 1.49-26.11 3.48-55.28 1.14-17.72 2-37.46 1.47-55.54l108.65 17.75s-4.53 44.72-3.42 76.23a40.56 40.56 0 0 0 1 7.4c.05.34.16.75.2 1.22 2.7 14.03-.44 40.23-25.95 47.06Z" style="fill:#fff;transform-origin:243.797px 377.542px" id="elvhwdnfksy39" class="animable"/><path d="M300.76 319.56s0 .23-.07.66c0 .21-.05.48-.08.81a1.8 1.8 0 0 1 0 .22c0 .31-.06.64-.09 1s-.1 1-.14 1.53c0 .28-.06.57-.08.88-.15 1.57-.31 3.47-.49 5.64 0 .3-.05.6-.07.91v.47c0 .45-.08.9-.11 1.36s-.07.89-.11 1.35c-.18 2.31-.37 4.83-.55 7.5s-.36 5.19-.53 8c0 .71-.09 1.44-.13 2.16s-.07 1.24-.1 1.87c-.1 1.61-.18 3.25-.26 4.91v.6c0 .73-.07 1.46-.11 2.19 0 .48 0 .94-.06 1.4-.1 2.59-.21 5.21-.29 7.83v1.43c0 .71 0 1.42-.05 2.13 0 1-.05 1.9-.07 2.85 0 2.38-.07 4.74-.07 7.08-32-2.22-72.27-13.59-105.3-50.34.06-1.34.1-2.69.13-4 0-.82.06-1.64.07-2.46v-.34c0-1.19.06-2.37.08-3.55 0-1.73.07-3.46.09-5.18s0-3.37 0-5c0-3.9 0-7.77-.16-11.55Z" style="opacity:.2;transform-origin:246.38px 343.13px" class="animable" id="eli98wha1f4kj"/><path d="M215.89 326a4.29 4.29 0 1 1-.87-5.65 4.33 4.33 0 0 1 .87 5.65Zm0 0a3.23 3.23 0 1 0-4.91.7 3.28 3.28 0 0 0 4.91-.7Z" style="opacity:.1;transform-origin:212.287px 323.662px" class="animable" id="el4seyigfh96w"/><path d="M214.64 356.18a4.29 4.29 0 1 1-.86-5.64 4.32 4.32 0 0 1 .86 5.64Zm0 0a3.23 3.23 0 1 0-4.91.7 3.26 3.26 0 0 0 4.91-.7Z" style="opacity:.1;transform-origin:211.038px 353.843px" class="animable" id="el6wwd4ybfb6m"/><path d="M213.4 386.33a4.29 4.29 0 1 1-.86-5.64 4.31 4.31 0 0 1 .86 5.64Zm0 0a3.23 3.23 0 1 0-4.91.71 3.26 3.26 0 0 0 4.91-.71Z" style="opacity:.1;transform-origin:209.799px 383.993px" class="animable" id="el0zxrjpal78hp"/><path d="M212.15 416.49a4.29 4.29 0 1 1-.86-5.64 4.32 4.32 0 0 1 .86 5.64Zm0 0a3.23 3.23 0 1 0-4.9.7 3.28 3.28 0 0 0 4.9-.7Z" style="opacity:.1;transform-origin:208.548px 414.153px" class="animable" id="elm3bxoxe6hm"/><path d="M204.24 306.89c-.81 35.95-2 71.95-5 107.8-.19 2-.55 5.14-.91 7.13 1.06-9.53 1.25-19.13 1.77-28.7 1.22-26.72 2.64-59.67 4.17-86.23Z" style="opacity:.1;transform-origin:201.3px 364.355px" class="animable" id="elrs5wfxpajmb"/><path d="M188 301.31c-16 21.42 3.37 56.88 58.22 66.94 65.75 12.07 77.13-27.33 69-48.92S203.75 280.19 188 301.31Z" style="fill:#37474f;transform-origin:250.042px 331.14px" id="elxqihtyzhzu" class="animable"/><path d="M264.06 67.81c-3.5 0-11.45 2.35-11.45 2.35l25.68 9.06-1.92-6.36Z" style="fill:#fff;transform-origin:265.45px 73.515px" id="elwxgzl6cgmp" class="animable"/><path d="M264.06 67.81c-3.5 0-11.45 2.35-11.45 2.35l25.68 9.06-1.92-6.36Z" style="opacity:.2;transform-origin:265.45px 73.515px" class="animable" id="elp80y13e4yut"/><path d="M290.54 209c7.49 36.28 33 61.68 57 56.73s37.33-38.37 29.85-74.65-33-61.68-57-56.73-37.33 38.33-29.85 74.65Z" style="fill:#fff;transform-origin:333.965px 200.04px" id="elly54q7hjvc" class="animable"/><g style="opacity:.2;transform-origin:333.965px 200.04px" class="animable" id="elqnb5kbsrqql"><path d="M290.54 209c7.49 36.28 33 61.68 57 56.73s37.33-38.37 29.85-74.65-33-61.68-57-56.73-37.33 38.33-29.85 74.65Z" id="ellbmaldglyhi" class="animable" style="transform-origin:333.965px 200.04px"/></g><path d="M295.8 207.3c4.46 21.63 19.66 36.76 33.95 33.82s22.25-22.87 17.79-44.5-19.66-36.76-34-33.81-22.2 22.87-17.74 44.49Z" style="fill:#fff;transform-origin:321.665px 201.964px" id="el3i6potpi1c" class="animable"/><g style="opacity:.1;transform-origin:321.665px 201.964px" class="animable" id="el8s950kclq1"><path d="M295.8 207.3c4.46 21.63 19.66 36.76 33.95 33.82s22.25-22.87 17.79-44.5-19.66-36.76-34-33.81-22.2 22.87-17.74 44.49Z" id="elmdctr96s04l" class="animable" style="transform-origin:321.665px 201.964px"/></g><path d="M341 234a16.12 16.12 0 0 1-5.34 2.19c-12.48 2.58-25.78-10.65-29.67-29.55s3.06-36.31 15.54-38.89a17.35 17.35 0 0 1 12.15 2.2c6.42 6.11 11.57 15.52 13.87 26.67 3.07 14.96.22 29.09-6.55 37.38Z" style="fill:#fff;transform-origin:326.846px 201.983px" id="elav3no2sdun6" class="animable"/><path d="M345.86 147.77c19.72 12.71 29.47 42.7 26.55 65.28-6.07-23-12.65-45.69-26.55-65.28Z" style="fill:#fff;opacity:.4;transform-origin:359.389px 180.41px" class="animable" id="elkzul3opa3t"/><path d="M193.68 304.87a114.73 114.73 0 0 0 35.63 20.36c23.92 8.5 49.71 8.5 71.51-1.53 15.55-7 29.13-19.19 38.47-37 28.65-54.31-5.52-177-40.21-200.53C248 51.41 163.5 73.36 148.85 138.88c-9.92 44.44 13.4 139.63 44.83 165.99Z" style="fill:#263238;transform-origin:248.265px 200.608px" id="el94uo7mjmh89" class="animable"/><path d="M287 79.21h-.12c-41.49-6-75.35-.83-99.88 6.49 1.18-.75 2.39-1.46 3.61-2.16 23.36-6.48 54.45-10.77 91.93-6 1.34.47 2.68 1 4 1.52Zm13.11 7.67c-49.32-8.66-88.61-1.62-115.14 7.26-5.43 1.82-10.6 3.8-15.5 5.9-.63.66-1.24 1.32-1.83 2 5.57-2.47 11.51-4.8 17.8-6.91 26.73-9 66.49-16 116.48-6.85-.62-.5-1.23-.97-1.83-1.4Zm8.46 8.1c-51.05-9.68-91.63-2.52-118.82 6.59a200.47 200.47 0 0 0-31.68 13.71c-.36.59-.7 1.21-1 1.82a198.6 198.6 0 0 1 33.16-14.53c27.26-9.13 68.06-16.3 119.44-6.28Zm5.71 7.61c-51.48-10-92.4-2.75-119.76 6.4a196.27 196.27 0 0 0-42.91 20.3c-.19.56-.39 1.13-.58 1.7a195.5 195.5 0 0 1 44-21c27.38-9.18 68.4-16.36 120.11-6.16-.33-.42-.6-.83-.88-1.24Zm4.58 7.38c-51.4-9.87-92.23-2.69-119.55 6.45a192.41 192.41 0 0 0-51.12 25.84c-.08.52-.17 1.06-.26 1.6a189.88 189.88 0 0 1 51.83-26.43c27.32-9.15 68.25-16.33 119.81-6.21-.25-.42-.49-.85-.73-1.22Zm3.92 7.27c-51-9.65-91.53-2.49-118.7 6.61-24.81 8.32-44.27 20.06-57.26 30.54 0 .51-.06 1-.08 1.53 12.85-10.55 32.52-22.6 57.8-31.07 27.16-9.09 67.75-16.23 118.86-6.39-.23-.41-.4-.81-.64-1.22Zm3.46 7.19c-50.38-9.29-90.46-2.18-117.37 6.85-28.26 9.47-49.57 23.39-62.29 34.81v1.51c12.5-11.45 34-25.68 62.7-35.32 26.91-9 67-16.11 117.47-6.65Zm3.1 7.13c-49.59-8.82-89.07-1.76-115.7 7.15-31.69 10.62-54.64 26.84-66.55 38.84 0 .51.08 1 .13 1.53 11.52-12 34.62-28.56 66.88-39.37 26.6-8.9 66.09-15.93 115.71-7-.18-.37-.34-.71-.49-1.15Zm2.78 7.08c-48.66-8.28-87.43-1.3-113.7 7.51-35.42 11.85-59.85 30.64-70.25 42.79.07.53.13 1.06.2 1.6 9.77-12 34.4-31.31 70.48-43.4 26.23-8.79 65-15.75 113.68-7.33Zm2.53 7.05C287 138 249 144.92 223.17 153.58c-39.62 13.26-65.56 35.28-73.36 46.88l1 .53c7.68-11.45 33.42-33.29 72.78-46.48 25.82-8.64 63.8-15.52 111.4-7.71Zm2.31 7c-46.45-7.06-83.57-.23-109 8.28-39.66 13.28-65.62 35.33-73.42 46.92l1.08.54C163.31 197 189 175.19 228.4 162c25.36-8.49 62.46-15.29 108.9-8.13-.13-.38-.24-.76-.36-1.14Zm2.1 7c-45.19-6.4-81.38.31-106.31 8.67-39.65 13.28-65.62 35.33-73.41 46.92l1.08.54c7.7-11.44 33.42-33.28 72.78-46.46 24.87-8.34 61-15 106.18-8.54-.12-.29-.22-.68-.38-1.05Zm1.93 7c-43.87-5.73-79.06.88-103.46 9.05-39.66 13.28-65.63 35.34-73.39 46.93l1.06.54c7.67-11.32 33.4-33.21 72.8-46.34 24.34-8.17 59.48-14.75 103.31-8.93-.15-.39-.25-.76-.31-1.13Zm1.73 7.05c-42.44-5.05-76.58 1.45-100.42 9.43-39.66 13.28-65.62 35.33-73.39 46.93l1.06.54c7.7-11.44 33.43-33.29 72.8-46.46 23.75-8 57.82-14.44 100.21-9.33-.1-.25-.19-.61-.28-.99Zm1.56 7.07c-41-4.36-74 2-97.2 9.79-39.66 13.28-65.63 35.33-73.4 46.93l1.07.54c7.69-11.44 33.42-33.29 72.79-46.47 23.15-7.76 56.07-14.1 97-9.69-.11-.24-.2-.61-.28-.98Zm1.4 7.1c-39.41-3.67-71.23 2.55-93.83 10.12-39.66 13.28-65.62 35.33-73.39 46.93l1.06.54c7.69-11.45 33.43-33.28 72.8-46.47 22.5-7.54 54.25-13.73 93.55-10-.08-.28-.14-.64-.21-1.03Z" style="fill:#455a64;transform-origin:246.225px 160.504px" id="el0l15wnwcjfpj" class="animable"/><path d="M185.59 321.83c44.54 42.3 93.07 41.36 117.77 30.42 17.61-7.68 36.25-31.55 46.91-50.84C383 242.65 342 114.64 305.94 85.23c-13.57-11.09-33-16.89-41.88-17.42C296.37 84.48 307.73 150 307.73 150l-75.2 9.37s-13.79-72.14-47.73-79.3c0 0-33 8.33-49 61.18-14.26 47.26 16.94 149.4 49.79 180.58Z" style="fill:#fff;transform-origin:247.242px 213.224px" id="elv9p2zet1yon" class="animable"/><g style="opacity:.1;transform-origin:247.231px 235.58px" class="animable" id="elvrhbwlyw0ha"><path d="M162.14 287.47c13.16-15.09 39-45 39.46-48.84.7-5.09-4.37-55.57-6.4-60.36-1.71-4.1-33.81-50.52-46.9-65.74a128.89 128.89 0 0 0-12.45 28.74c-10.74 35.51 4.22 102.08 26.29 146.2Z" id="el9llagguo5bg" class="animable" style="transform-origin:166.979px 200px"/><path d="M260.62 358.17c17.19 1.62 32.14-1.2 42.74-5.9 5.82-2.55 11.73-6.83 17.42-12.16-4.39-2.58-9.95-5.44-12.69-5.69-4.61-.41-28.35 4.41-31.79 5.68-2.42.9-10.78 11.58-15.68 18.07Z" id="elvuttt2drmbs" class="animable" style="transform-origin:290.7px 346.513px"/><path d="M362.17 241.58c-6.19-8.5-13-19.83-13.39-21.19-.83-3.12-20.73-71.31-21-75.73-.11-2.29.48-16 1.11-28.75.51.94 1 1.9 1.52 2.9l.09.16c5.84 11.41 12 26.69 17.69 43.38 0 .08 0 .16.08.25 8.06 25.31 13.43 53.26 13.9 78.98Z" id="eli3x5ym6bvk" class="animable" style="transform-origin:344.968px 178.745px"/></g><path d="M359.57 264.55c-4.57 27.77-33.94 62.45-36.15 63.64-1.08.59-3-.87-6.55-3.72-2.69-2.15-5.74-4.59-7.7-5.08-3.87-1-36.3 4.3-40.14 6.06-1.5.68-4.53 4.27-7.45 7.74-4.55 5.39-7.43 8.68-9.12 8.68-15.12 0-63.94-55-65.31-58.75-.77-2.12 4.41-9.37 12.92-21 5.84-8 12.47-17.06 12.63-19.51.33-5.13-4.85-63.94-7.22-69.42-1.89-4.38-36.62-50.84-50.91-69.87.21-.29.44-.57.66-.86 14.24 19 49.25 65.76 51.21 70.31 2.4 5.58 7.69 63.81 7.3 69.91-.18 2.75-6.32 11.16-12.83 20.06-6 8.17-13.41 18.32-12.78 20 1.36 3.73 49.46 58.07 64.33 58.07 1.33 0 5.2-4.61 8.32-8.31s6.1-7.24 7.83-8c3.19-1.46 36.43-7.21 40.81-6.12 2.19.55 5.33 3.07 8.11 5.28 1.9 1.53 4.8 3.83 5.4 3.62 1.33-.81 31-34.47 35.61-62.91.68-4.13-7.47-16.13-14-25.77-4.15-6.11-7.73-11.39-8.33-13.59-1.8-6.62-19-77.82-19.26-83-.16-3.67 2.66-25.67 4.4-38.76.28.45.58.9.87 1.35-1.74 13.16-4.38 33.93-4.23 37.36.23 5 17.47 76.37 19.23 82.83.55 2 4.25 7.49 8.17 13.27 6.99 10.26 14.92 21.94 14.18 26.49Z" style="opacity:.1;transform-origin:257.094px 222.165px" class="animable" id="elbtt5261j3uv"/><path d="M251 280.66s35.31-2.66 41.87-3.57c10.56-1.47 34.93-7 34.93-7a186.94 186.94 0 0 1-18 8.29c-7.43 2.77-28.14 5.37-34.46 4.85a503.301 503.301 0 0 1-24.34-2.57Z" style="opacity:.1;transform-origin:289.4px 276.693px" class="animable" id="el6nezraw13uw"/><path d="M272.81 291.58s18.45-1.39 21.88-1.87c5.52-.77 18.26-3.64 18.26-3.64a98 98 0 0 1-9.42 4.33c-3.88 1.45-14.7 2.81-18 2.54-6.69-.55-12.72-1.36-12.72-1.36Z" style="opacity:.1;transform-origin:292.88px 289.522px" class="animable" id="ellw2cigxlyyt"/><path d="M267.49 256.12s10.06 2.68 16.27 2.13c3.69-.33 12.54-1.58 15.1-2.12 5.46-1.16 10.21-5.6 10.21-5.6s-3.91 7.49-8.06 9.15c-3.84 1.53-14.58 3-17.86 2.67-6.64-.59-15.66-6.23-15.66-6.23Z" style="opacity:.1;transform-origin:288.28px 256.463px" class="animable" id="elg0edoytn7r"/><path d="M214.64 202.43c-2.26 2.16 3.25 45.1 7.2 47.65s120.33-14 122.65-14.79-4.11-45.52-6-48S219.28 198 214.64 202.43Z" style="fill:#263238;transform-origin:279.551px 218.665px" id="elaw07c3xmn0n" class="animable"/><path d="M212.13 214.22c-.3 6.49 1 13 1.92 19.42 1.16 6.22 1.94 12.94 4.86 18.58.72 1.35 2.37 1.08 3.72 1.22a133.72 133.72 0 0 0 14.55-.71c32.17-3.27 65-7.87 97.07-12.34a938.93 938.93 0 0 1-96.92 14.16 134.87 134.87 0 0 1-14.78.58c-1.75-.1-4.06-.23-5-2.08-3-6-3.49-12.75-4.52-19.27-.6-6.47-1.68-13.07-.94-19.56Z" style="opacity:.1;transform-origin:273.045px 234.683px" class="animable" id="elbj8z2gboww4"/><path d="M347.79 223.33a80 80 0 0 0-.87-10.92A173.55 173.55 0 0 0 343 190.9a29 29 0 0 0-1.79-5c-.38-.75-.86-1.5-1.34-1.61a12 12 0 0 0-2.47-.34c-14.59-.09-29.12 1.87-43.72 2.27a269.11 269.11 0 0 1 32.75-4 85.47 85.47 0 0 1 11.09 0 9 9 0 0 1 3.35.76 5.16 5.16 0 0 1 1.74 2.24c2.2 5.18 2.89 10.74 3.75 16.21.86 7.27 1.88 14.62 1.46 21.93Z" style="fill:#fff;opacity:.4;transform-origin:320.799px 202.7px" class="animable" id="elrdsexgmyno"/><path d="M244.11 211.1c14.23-2 17.2 26.59 4 28.46-12.95 1.83-15.93-26.77-4-28.46Z" style="fill:#fff;transform-origin:246.58px 225.322px" id="elh7igjjlcp19" class="animable"/><g style="opacity:.3;transform-origin:246.584px 225.313px" class="animable" id="el7pvvwk3xmdn"><path d="M244.47 213.14c12.18-1.72 14.72 22.77 3.44 24.36-11.11 1.57-13.65-22.92-3.44-24.36Z" style="fill:#fff;transform-origin:246.584px 225.313px" id="elalr30vjk3l" class="animable"/></g><path d="M317.47 202.44c14.23-2 17.2 26.6 4 28.46-12.95 1.83-15.92-26.77-4-28.46Z" style="fill:#fff;transform-origin:319.942px 216.662px" id="el2i5wvose4ss" class="animable"/><g style="opacity:.3;transform-origin:319.946px 216.653px" class="animable" id="elx2vkoe50wyr"><path d="M317.84 204.55c12.11-1.71 14.65 22.64 3.42 24.22-11.04 1.56-13.57-22.77-3.42-24.22Z" style="fill:#fff;transform-origin:319.946px 216.653px" id="el2kgnxqxzhd" class="animable"/></g><path d="M290.7 84.09c7.95 1.16 15.79 9.77 20.86 15.63 16.49 20.41 26.83 45.64 30.52 71.53-10.17-23.61-20-47.32-34.28-68.71a117.36 117.36 0 0 0-7.57-10.19c-2.75-3.17-5.6-6.54-9.53-8.26Z" style="fill:#fff;opacity:.4;transform-origin:316.39px 127.67px" class="animable" id="el9ez5u6liwh7"/><path d="M112 239.15c7.49 36.28 33 61.68 57 56.73s37.34-38.37 29.85-74.65-33-61.68-57-56.73-37.33 38.36-29.85 74.65Z" style="fill:#fff;transform-origin:155.427px 230.19px" id="elt0ztmfj4r1" class="animable"/><g style="opacity:.2;transform-origin:155.427px 230.19px" class="animable" id="elcb2a7jm18ye"><path d="M112 239.15c7.49 36.28 33 61.68 57 56.73s37.34-38.37 29.85-74.65-33-61.68-57-56.73-37.33 38.36-29.85 74.65Z" id="el5q05gl62cfb" class="animable" style="transform-origin:155.427px 230.19px"/></g><path d="M117.16 237c4.08 21.71 19 37.12 33.34 34.42s22.66-22.46 18.59-44.16-19-37.12-33.34-34.42-22.66 22.48-18.59 44.16Z" style="fill:#fff;transform-origin:143.125px 232.13px" id="el5eqnizccrir" class="animable"/><g style="opacity:.1;transform-origin:143.125px 232.13px" class="animable" id="elpxs6h9hjt9m"><path d="M117.16 237c4.08 21.71 19 37.12 33.34 34.42s22.66-22.46 18.59-44.16-19-37.12-33.34-34.42-22.66 22.48-18.59 44.16Z" id="elgbspzeun36a" class="animable" style="transform-origin:143.125px 232.13px"/></g><path d="M161.86 264.51a15.81 15.81 0 0 1-5.38 2.1C144 269 130.9 255.5 127.34 236.54s3.72-36.25 16.25-38.61a17.42 17.42 0 0 1 12.1 2.41c6.31 6.22 11.29 15.73 13.39 26.92 2.82 15.03-.29 29.11-7.22 37.25Z" style="fill:#fff;transform-origin:148.276px 232.288px" id="elr4q244r0i" class="animable"/><path d="M148.55 173.55a4.29 4.29 0 1 1-.86-5.64 4.31 4.31 0 0 1 .86 5.64Zm0 0a3.23 3.23 0 1 0-4.9.7 3.26 3.26 0 0 0 4.9-.7Z" style="opacity:.1;transform-origin:144.949px 171.213px" class="animable" id="elbam44z8lzvh"/><path d="M171.1 182.65a4.29 4.29 0 1 1-.86-5.64 4.3 4.3 0 0 1 .86 5.64Zm0 0a3.23 3.23 0 1 0-4.9.7 3.27 3.27 0 0 0 4.9-.7Z" style="opacity:.1;transform-origin:167.501px 180.313px" class="animable" id="elcg8cy7f13t"/><path d="M187.29 204.26a4.29 4.29 0 1 1-.86-5.64 4.31 4.31 0 0 1 .86 5.64Zm0 0a3.23 3.23 0 1 0-4.91.7 3.26 3.26 0 0 0 4.91-.7Z" style="opacity:.1;transform-origin:183.689px 201.923px" class="animable" id="elzaezlcbtlqp"/><path d="M195.48 233.25a4.29 4.29 0 1 1-.86-5.64 4.31 4.31 0 0 1 .86 5.64Zm0 0a3.23 3.23 0 1 0-4.9.71 3.27 3.27 0 0 0 4.9-.71Z" style="opacity:.1;transform-origin:191.879px 230.913px" class="animable" id="elp2wkm3z8d9h"/><path d="M183 284a4.29 4.29 0 1 1-.86-5.64A4.32 4.32 0 0 1 183 284Zm0 0a3.23 3.23 0 1 0-4.91.7 3.26 3.26 0 0 0 4.91-.7Z" style="opacity:.1;transform-origin:179.398px 281.663px" class="animable" id="elafey5nmrrd5"/><path d="M160.76 291.05a4.29 4.29 0 1 1-.86-5.64 4.32 4.32 0 0 1 .86 5.64Zm0 0a3.23 3.23 0 1 0-4.91.71 3.27 3.27 0 0 0 4.91-.71Z" style="opacity:.1;transform-origin:157.158px 288.713px" class="animable" id="else79tjbjbs"/><path d="M139.12 279.75c-.44 1.83-1.94 3.25-3.58 2.69s-2.94-3.26-2.25-5.71 2.84-3.49 4.3-2.32 2.01 3.59 1.53 5.34Zm0 0c.54-1.93-.54-4.1-1.79-4.34s-2.29.78-2.6 2.07a4 4 0 0 0 1.06 4c1.07.93 2.88.24 3.33-1.73Z" style="opacity:.1;transform-origin:136.195px 278.247px" class="animable" id="el6jtgu66bcno"/><path d="M125.09 264.08c-.26 1.56-1.18 2.76-2.2 2.27s-1.84-2.8-1.43-4.88 1.73-3 2.64-2 1.27 3.08.99 4.61Zm0 0c.32-1.63-.37-3.5-1.14-3.71s-1.41.64-1.6 1.74a4.41 4.41 0 0 0 .69 3.4c.67.82 1.78.25 2.05-1.43Z" style="opacity:.1;transform-origin:123.267px 262.763px" class="animable" id="eltekp6wcq7bm"/><path d="M117.37 201.91c-.26 1.56-1.18 2.76-2.19 2.27s-1.85-2.8-1.44-4.88 1.73-3 2.64-2 1.27 3.08.99 4.61Zm0 0c.32-1.63-.37-3.5-1.14-3.72s-1.41.65-1.6 1.75a4.41 4.41 0 0 0 .69 3.4c.68.82 1.79.25 2.05-1.43Z" style="opacity:.1;transform-origin:115.548px 200.593px" class="animable" id="elo867jm00u9"/><path d="M128.15 183.48c-.44 1.83-1.94 3.25-3.57 2.69s-3-3.26-2.26-5.71 2.85-3.49 4.3-2.32 2.02 3.54 1.53 5.34Zm0 0c.54-1.92-.54-4.1-1.79-4.34s-2.28.78-2.6 2.07a4 4 0 0 0 1.07 4c1.07.93 2.87.24 3.32-1.73Z" style="opacity:.1;transform-origin:125.218px 181.977px" class="animable" id="el3tuoze24a3z"/><path d="M194.75 260.34a4.29 4.29 0 1 1-.86-5.64 4.32 4.32 0 0 1 .86 5.64Zm0 0a3.23 3.23 0 1 0-4.91.7 3.26 3.26 0 0 0 4.91-.7Z" style="opacity:.1;transform-origin:191.148px 258.003px" class="animable" id="elwbh4clgfu3i"/><path d="M116 248.76c6.24 10.18 12.38 21.56 22.76 27.69 7.5 4.3 17.44 4.6 24.2-1.31a30.57 30.57 0 0 0 6.17-6.73 23.36 23.36 0 0 1-8.48 11.41c-7 4.93-16.65 4.19-23.85.11-11.19-6.64-17.23-19.19-20.8-31.17Z" style="opacity:.1;transform-origin:142.565px 266.009px" class="animable" id="el97bruyd7eh9"/></g><defs><filter id="active" height="200%"><feMorphology in="SourceAlpha" result="DILATED" operator="dilate" radius="2"/><feFlood flood-color="#32DFEC" flood-opacity="1" result="PINK"/><feComposite in="PINK" in2="DILATED" operator="in" result="OUTLINE"/><feMerge><feMergeNode in="OUTLINE"/><feMergeNode in="SourceGraphic"/></feMerge></filter><filter id="hover" height="200%"><feMorphology in="SourceAlpha" result="DILATED" operator="dilate" radius="2"/><feFlood flood-color="red" flood-opacity=".5" result="PINK"/><feComposite in="PINK" in2="DILATED" operator="in" result="OUTLINE"/><feMerge><feMergeNode in="OUTLINE"/><feMergeNode in="SourceGraphic"/></feMerge><feColorMatrix values="0 0 0 0 0 0 1 0 0 0 0 0 0 0 0 0 0 0 1 0"/></filter></defs></svg>