<svg  width="700px" height="700px" class="animated" id="freepik_stories-outer-space" xmlns="http://www.w3.org/2000/svg" viewBox="0 0 500 500" version="1.1"><style>@keyframes wind{0%{transform:rotate(0deg)}25%{transform:rotate(1deg)}75%{transform:rotate(-1deg)}}@keyframes floating{0%,to{opacity:1;transform:translateY(0)}50%{transform:translateY(-10px)}}svg#freepik_stories-outer-space:not(.animated) .animable{opacity:0}.animator-hidden{display:none}</style><g id="freepik--Moon--inject-73" class="animable" style="transform-origin:113.988px 376.492px;animation:6s Infinite linear spin;animation-delay:0s"><path d="m66.13 340.67 7.7-7.7a5.64 5.64 0 0 0 0-8 5.65 5.65 0 0 0-8 0l-7.7 7.7a5.64 5.64 0 0 0 0 8 5.65 5.65 0 0 0 8 0Z" style="fill:#ebebeb;transform-origin:65.98px 332.82px" id="elg5kpxdzkqpq" class="animable"/><path d="m171.31 417 4.89-9.73a5.65 5.65 0 0 0-2.51-7.58 5.64 5.64 0 0 0-7.58 2.51l-4.89 9.73a5.64 5.64 0 0 0 2.51 7.58 5.64 5.64 0 0 0 7.58-2.51Z" style="fill:#ebebeb;transform-origin:168.708px 409.6px" id="elio3w1msnr4e" class="animable"/><path d="m103.89 318.93 5.79-.83a5.65 5.65 0 0 0 4.79-6.39 5.64 5.64 0 0 0-6.39-4.79l-5.79.83a5.64 5.64 0 0 0-4.79 6.39 5.65 5.65 0 0 0 6.39 4.79Z" style="fill:#ebebeb;transform-origin:105.984px 312.924px" id="elt6c1y5zmb2g" class="animable"/><path d="m57.93 395.34-.83-5.79a5.64 5.64 0 0 0-6.39-4.79 5.63 5.63 0 0 0-4.78 6.38l.82 5.8a5.66 5.66 0 0 0 6.39 4.79 5.65 5.65 0 0 0 4.79-6.39Z" style="fill:#ebebeb;transform-origin:51.9293px 393.244px" id="elq8xn850fswj" class="animable"/><rect x="167.89" y="374.56" width="17.14" height="11.29" rx="2.16" style="fill:#ebebeb;transform-origin:176.46px 380.205px;transform:rotate(90deg)" class="animable" id="elr0e0iec2fgd"/><path d="m93.41 444.42 5.65 1.51a5.64 5.64 0 0 0 6.91-4 5.65 5.65 0 0 0-4-6.92l-5.65-1.51a5.65 5.65 0 0 0-6.92 4 5.67 5.67 0 0 0 4.01 6.92Z" style="fill:#ebebeb;transform-origin:97.6876px 439.715px" id="el4izwbthnps9" class="animable"/><circle cx="112.97" cy="377.76" r="65.14" style="fill:#ebebeb;transform-origin:112.97px 377.76px" id="elplgfl3ynl2" class="animable"/><path d="M136.67 339.12a14.63 14.63 0 0 1-2.41 8.84 17.63 17.63 0 0 1-7.08 6.26 12.92 12.92 0 0 1-9.57.81 13.44 13.44 0 0 1-7.28-5.6 19.45 19.45 0 0 0 7.81 3.45 11.43 11.43 0 0 0 4 0 12.63 12.63 0 0 0 3.79-1.22c.61-.3 1.23-.63 1.83-1s1.16-.75 1.69-1.19a18.9 18.9 0 0 0 3-2.84 22.3 22.3 0 0 0 4.22-7.51Z" style="fill:#c7c7c7;transform-origin:123.51px 347.357px" id="el1z4wwfwxli" class="animable"/><path d="M113.25 342.87a9.37 9.37 0 0 1 1.36-6.23 11.73 11.73 0 0 1 4.9-4.46 8.88 8.88 0 0 1 6.8-.49 8.65 8.65 0 0 1 4.87 4.16 14.58 14.58 0 0 0-5.4-2 8.77 8.77 0 0 0-5 .89 15.45 15.45 0 0 0-7.53 8.13Z" style="fill:#c7c7c7;transform-origin:122.174px 337.052px" id="el8giam0jpw6" class="animable"/><path d="M91.19 387.61a8.84 8.84 0 0 1 .16 6.21 10.81 10.81 0 0 1-3.76 5.27 8.54 8.54 0 0 1-6.41 1.73 8.72 8.72 0 0 1-5.46-3 15.72 15.72 0 0 0 5.56.78 8.4 8.4 0 0 0 4.58-1.77 13.31 13.31 0 0 0 3.46-3.89 16.18 16.18 0 0 0 1.87-5.33Z" style="fill:#c7c7c7;transform-origin:83.7782px 394.254px" id="elryhnen8inz" class="animable"/><path d="M77.7 395a5.66 5.66 0 0 1-.44-4.36 7.25 7.25 0 0 1 2.62-3.81 5.88 5.88 0 0 1 4.65-1.18 5.6 5.6 0 0 1 3.7 2.4 12.86 12.86 0 0 0-3.8-.17 6 6 0 0 0-2.83 1.21 11.06 11.06 0 0 0-3.9 5.91Z" style="fill:#c7c7c7;transform-origin:82.6212px 390.282px" id="elzml171sotvp" class="animable"/><path d="M67.83 373.11a5.87 5.87 0 0 1 1.86 4.19 6.37 6.37 0 0 1-1.85 4.6 5.69 5.69 0 0 1-4.77 1.63 6.76 6.76 0 0 1-4.09-2 21.16 21.16 0 0 0 4.02-.23 5 5 0 0 0 2.79-1.4 6.61 6.61 0 0 0 1.65-2.83 12 12 0 0 0 .39-3.96Z" style="fill:#c7c7c7;transform-origin:64.3355px 378.344px" id="eln3l6hbizmak" class="animable"/><path d="M59.76 379.44a3.72 3.72 0 0 1-1.62-2.88 4.43 4.43 0 0 1 1.29-3.42A4.06 4.06 0 0 1 63 372a4.23 4.23 0 0 1 2.79 1.69 21.93 21.93 0 0 0-2.74.55 3.39 3.39 0 0 0-1.59.91 5.1 5.1 0 0 0-1.09 1.65 9.55 9.55 0 0 0-.61 2.64Z" style="fill:#c7c7c7;transform-origin:61.9604px 375.691px" id="ellizlz1yiox" class="animable"/><path d="M157.09 353.82a5.79 5.79 0 0 1-1.4 4.36 6.39 6.39 0 0 1-4.43 2.22 5.7 5.7 0 0 1-4.65-1.95 6.8 6.8 0 0 1-1.76-4.19 21.36 21.36 0 0 0 3.21 2.49 5.11 5.11 0 0 0 3 .81 6.66 6.66 0 0 0 3.11-1 12.34 12.34 0 0 0 2.92-2.74Z" style="fill:#c7c7c7;transform-origin:150.983px 357.115px" id="elv1undd8xar" class="animable"/><path d="M146.85 353.19a3.72 3.72 0 0 1 .71-3.23 4.45 4.45 0 0 1 3.23-1.7 4 4 0 0 1 3.42 1.51 4.21 4.21 0 0 1 1 3.12 20 20 0 0 0-2.42-1.42 3.33 3.33 0 0 0-1.79-.37 5.07 5.07 0 0 0-1.91.5 9.7 9.7 0 0 0-2.24 1.59Z" style="fill:#c7c7c7;transform-origin:150.983px 350.72px" id="eljaue8emq8h" class="animable"/><path d="M120.57 398.08a14.43 14.43 0 1 0-7.24-19 14.39 14.39 0 0 0 7.24 19Z" style="fill:#dbdbdb;transform-origin:126.513px 384.934px" id="elleo4gyjnpx" class="animable"/><path d="M133.19 378.11a13 13 0 0 1 7.42 9.19 14.37 14.37 0 1 0-25.11 7 13.09 13.09 0 0 1 17.69-16.16Z" style="fill:#c7c7c7;transform-origin:126.43px 382.45px" id="elrfr1l6k0ig" class="animable"/><path d="M146.35 387.32a18.58 18.58 0 0 1-3.18 10.76 22 22 0 0 1-8.68 7.57 15.84 15.84 0 0 1-11.6 1.06 17.05 17.05 0 0 1-9.06-6.66 22.92 22.92 0 0 0 9.59 4.5 21.72 21.72 0 0 0 2.53.27 13.9 13.9 0 0 0 2.5-.2 16 16 0 0 0 4.79-1.52c.77-.39 1.54-.8 2.28-1.24s1.46-.93 2.12-1.49a22.73 22.73 0 0 0 3.74-3.6 26.25 26.25 0 0 0 4.97-9.45Z" style="fill:#c7c7c7;transform-origin:130.092px 397.335px" id="el3bjhsp4m4wv" class="animable"/><path d="M162.12 392.8a5.39 5.39 0 1 0-4-6.46 5.38 5.38 0 0 0 4 6.46Z" style="fill:#dbdbdb;transform-origin:163.37px 387.557px" id="el3a6b3cn0hl8" class="animable"/><path d="M165.32 384.58a4.87 4.87 0 0 1 3.37 2.84 5.36 5.36 0 1 0-8.7 4.34 4.81 4.81 0 0 1-.51-3.51 4.88 4.88 0 0 1 5.84-3.67Z" style="fill:#c7c7c7;transform-origin:163.331px 386.985px" id="elew9ok7yve1k" class="animable"/><path d="M170.79 387a6.63 6.63 0 0 1-.27 4.23 8 8 0 0 1-2.66 3.47 6 6 0 0 1-4.28 1.21 6.1 6.1 0 0 1-3.79-1.93 9.1 9.1 0 0 0 3.84.82 5.82 5.82 0 0 0 3.38-1.23 9.77 9.77 0 0 0 3.78-6.57Z" style="fill:#c7c7c7;transform-origin:165.403px 391.471px" id="eldptp28nur98" class="animable"/><path d="M125.17 427.66a7.65 7.65 0 1 0-7.19-8.05 7.63 7.63 0 0 0 7.19 8.05Z" style="fill:#dbdbdb;transform-origin:125.618px 420.023px" id="el9pj86mzbkcv" class="animable"/><path d="M127.63 415.38a6.88 6.88 0 0 1 5.42 3.14 7.62 7.62 0 1 0-11.11 8.21 6.83 6.83 0 0 1-1.58-4.79 6.92 6.92 0 0 1 7.27-6.56Z" style="fill:#c7c7c7;transform-origin:125.506px 419.573px" id="ellk8hle3hkhc" class="animable"/><path d="M135.89 417.44a10 10 0 0 1 .43 5.92 11.67 11.67 0 0 1-2.85 5.38 8.47 8.47 0 0 1-5.52 2.72 9.15 9.15 0 0 1-5.74-1.55 12 12 0 0 0 5.6.45 8.34 8.34 0 0 0 4.62-2.59 13 13 0 0 0 2.83-4.7 13.75 13.75 0 0 0 .63-5.63Z" style="fill:#c7c7c7;transform-origin:129.395px 424.46px" id="el233kjent9bg" class="animable"/><path d="M91.09 353.87c-3.45 5.27-11.07 6.39-17 2.5s-8-11.32-4.54-16.59 11.06-6.39 17-2.5 7.98 11.32 4.54 16.59Z" style="fill:#dbdbdb;transform-origin:80.3166px 346.825px" id="elyqnpljvka" class="animable"/><path d="M72.15 344.72a10 10 0 0 0-.56 9.61c-4-4.1-5-10.09-2.06-14.56 3.44-5.26 11.06-6.38 17-2.49a13.05 13.05 0 0 1 6.18 11.79 12.43 12.43 0 0 0-5.13-6.63c-5.38-3.52-12.3-2.51-15.43 2.28Z" style="fill:#c7c7c7;transform-origin:80.2801px 344.646px" id="eltnniupmxjze" class="animable"/><path d="M95.29 345.17a12.24 12.24 0 0 1 1.71 9.29 11.62 11.62 0 0 1-2.15 4.54 14.39 14.39 0 0 1-3.73 3.43 13.85 13.85 0 0 1-4.81 1.63 16.11 16.11 0 0 1-4.91-.14 20.13 20.13 0 0 1-8.63-3.74 40.15 40.15 0 0 0 8.87 1.53 14.56 14.56 0 0 0 8-1.72 12.35 12.35 0 0 0 3.08-2.66 11.18 11.18 0 0 0 2.11-3.51 16.09 16.09 0 0 0 .46-8.65Z" style="fill:#c7c7c7;transform-origin:85.0247px 354.677px" id="elg9tgrwe0pqj" class="animable"/></g><g id="freepik--Stars--inject-73" class="animable" style="transform-origin:250px 250px"><path style="fill:#c7c7c7;transform-origin:393.49px 339.865px" id="el7nkv52af9ux" class="animable" d="m386.75 339.87 5.51 1.01 1.23 5.81 1.23-5.81 5.51-1.02-5.49-1.34-1.25-5.48-1.26 5.48-5.48 1.35z"/><path style="fill:#c7c7c7;transform-origin:166.2px 308.515px" id="elx7ox3yme9of" class="animable" d="m159.46 308.51 5.51 1.02 1.23 5.81 1.23-5.81 5.51-1.02-5.48-1.34-1.26-5.48-1.25 5.48-5.49 1.34z"/><path style="fill:#c7c7c7;transform-origin:337.22px 246.435px" id="elap7ckxd1e86" class="animable" d="m330.48 246.44 5.51 1.02 1.23 5.8 1.23-5.8 5.51-1.02-5.48-1.35-1.26-5.48-1.25 5.48-5.49 1.35z"/><path style="fill:#c7c7c7;transform-origin:442.875px 305.685px" id="elt4b0tq7may8" class="animable" d="m439.11 305.68 3.08.57.69 3.25.69-3.25 3.07-.57-3.06-.75-.7-3.06-.7 3.06-3.07.75z"/><path style="fill:#c7c7c7;transform-origin:209.235px 429.185px" id="elzesfw2ye0r" class="animable" d="m205.47 429.18 3.07.57.69 3.25.69-3.25 3.08-.57-3.07-.75-.7-3.06-.7 3.06-3.06.75z"/><path style="fill:#c7c7c7;transform-origin:435.345px 159.585px" id="elovclv13i8k" class="animable" d="m431.58 159.59 3.08.57.69 3.24.68-3.24 3.08-.58-3.06-.74-.7-3.07-.71 3.07-3.06.75z"/><path style="fill:#c7c7c7;transform-origin:72.155px 229.395px" id="elseitjwkeb7p" class="animable" d="m68.39 229.4 3.08.57.69 3.24.68-3.24 3.08-.57-3.06-.75-.7-3.07-.7 3.07-3.07.75z"/><path style="fill:#c7c7c7;transform-origin:88.675px 394.585px" id="eljtt76uar98" class="animable" d="m84.91 394.59 3.08.57.69 3.24.68-3.24 3.08-.57-3.06-.75-.7-3.07-.71 3.07-3.06.75z"/><path style="fill:#c7c7c7;transform-origin:423.465px 241.795px" id="elabu9jfmmu4c" class="animable" d="m419.7 241.8 3.08.57.68 3.24.69-3.24 3.08-.57-3.06-.75-.71-3.07-.7 3.07-3.06.75z"/><path style="fill:#c7c7c7;transform-origin:293.6px 346.695px" id="elgdacberrej9" class="animable" d="m289.83 346.69 3.08.57.69 3.25.69-3.25 3.08-.57-3.07-.75-.7-3.06-.7 3.06-3.07.75z"/><path style="fill:#c7c7c7;transform-origin:181.555px 86.065px" id="el2knf2eoa4fj" class="animable" d="m177.79 86.07 3.08.57.69 3.24.69-3.24 3.07-.57-3.06-.75-.7-3.07-.7 3.07-3.07.75z"/><path style="fill:#c7c7c7;transform-origin:302.09px 334.9px" id="elbft3lfftkx4" class="animable" d="m298.32 334.9 3.08.57.69 3.25.69-3.25 3.08-.57-3.07-.75-.7-3.07-.7 3.07-3.07.75z"/><path d="M198.18 436.2a.9.9 0 0 1 0 1.79.9.9 0 0 1 0-1.79Z" style="fill:#c7c7c7;transform-origin:198.18px 437.095px" id="el8qpxj7dym7v" class="animable"/><path d="M357.39 268.81a.9.9 0 0 1 0 1.79.9.9 0 0 1 0-1.79Z" style="fill:#c7c7c7;transform-origin:357.39px 269.705px" id="eltwfrt1r6vqr" class="animable"/><path d="M281.24 344a.89.89 0 0 1 0 1.78.89.89 0 0 1 0-1.78Z" style="fill:#c7c7c7;transform-origin:281.24px 344.89px" id="elrb7172jzoj" class="animable"/><path d="M148.87 429.51a.89.89 0 0 1 0 1.78.89.89 0 0 1 0-1.78Z" style="fill:#c7c7c7;transform-origin:148.87px 430.4px" id="elz6wiuqh1ir" class="animable"/><path d="M446.81 441.33a.9.9 0 0 1 0 1.79.9.9 0 0 1 0-1.79Z" style="fill:#c7c7c7;transform-origin:446.81px 442.225px" id="ell5k0q2kqs7" class="animable"/><path d="M399.86 280.51a.89.89 0 0 1 0 1.78.89.89 0 0 1 0-1.78Z" style="fill:#c7c7c7;transform-origin:399.86px 281.4px" id="elrtpcyajxj59" class="animable"/><path d="M220.54 420.15a.63.63 0 0 1 0 1.26.63.63 0 0 1 0-1.26Z" style="fill:#c7c7c7;transform-origin:220.54px 420.78px" id="elm19li2mgw7n" class="animable"/><path d="M94.46 92.32a.64.64 0 0 1 0 1.27.64.64 0 0 1 0-1.27Z" style="fill:#c7c7c7;transform-origin:94.46px 92.955px" id="el5ivo08ic1b3" class="animable"/><path d="M338 295.25a.63.63 0 0 1 0 1.26.63.63 0 0 1 0-1.26Z" style="fill:#c7c7c7;transform-origin:338px 295.88px" id="elpoer8voihqr" class="animable"/><path d="M307.46 349.88a.63.63 0 0 1 0 1.26.63.63 0 0 1 0-1.26Z" style="fill:#c7c7c7;transform-origin:307.46px 350.51px" id="elfmj19h9219" class="animable"/><path d="M257.51 339.23a.64.64 0 0 1 0 1.27.64.64 0 0 1 0-1.27Z" style="fill:#c7c7c7;transform-origin:257.51px 339.865px" id="elf6svf1jg8ww" class="animable"/><path d="M316.56 283.78a1.71 1.71 0 0 1 0 3.42 1.71 1.71 0 0 1 0-3.42Z" style="fill:#c7c7c7;transform-origin:316.56px 285.49px" id="eleg5xw1bnchp" class="animable"/><path style="fill:#c7c7c7;transform-origin:235.73px 110.965px" id="elik1jctvzfx" class="animable" d="m228.99 110.97 5.51 1.02 1.23 5.8 1.23-5.8 5.51-1.02-5.49-1.34-1.25-5.49-1.26 5.49-5.48 1.34z"/><path style="fill:#c7c7c7;transform-origin:253.745px 60.695px" id="el3q6rjnsi5dk" class="animable" d="m249.98 60.7 3.08.57.69 3.24.69-3.24 3.07-.57-3.06-.75-.7-3.07-.7 3.07-3.07.75z"/><path d="M63.34 144a.89.89 0 0 1 0 1.78.89.89 0 0 1 0-1.78Z" style="fill:#c7c7c7;transform-origin:63.34px 144.89px" id="elly7i9vq1ky" class="animable"/><path d="M77.36 380.7a.9.9 0 0 1 0 1.79.9.9 0 0 1 0-1.79Z" style="fill:#c7c7c7;transform-origin:77.36px 381.595px" id="ela88x1eth6zs" class="animable"/><path d="M53.19 425a.9.9 0 0 1 0 1.79.9.9 0 0 1 0-1.79Z" style="fill:#c7c7c7;transform-origin:53.19px 425.895px" id="elc1mjy0phri" class="animable"/><path d="M98.9 218.82a.9.9 0 0 1 0 1.79.9.9 0 0 1 0-1.79Z" style="fill:#c7c7c7;transform-origin:98.9px 219.715px" id="eldjdp4655bl" class="animable"/><path d="M53.19 64.77a.9.9 0 0 1 0 1.79.9.9 0 0 1 0-1.79Z" style="fill:#c7c7c7;transform-origin:53.19px 65.665px" id="elgu12i3gb86" class="animable"/><path d="M134.21 338.15a.64.64 0 0 1 0 1.27.64.64 0 0 1 0-1.27Z" style="fill:#c7c7c7;transform-origin:134.21px 338.785px" id="elhvax7sz1omr" class="animable"/><path d="M267.39 419.08a.63.63 0 0 1 0 1.26.63.63 0 0 1 0-1.26Z" style="fill:#c7c7c7;transform-origin:267.39px 419.71px" id="el96icrubpmu" class="animable"/><path d="M361.15 130.23a.64.64 0 0 1 0 1.27.64.64 0 0 1 0-1.27Z" style="fill:#c7c7c7;transform-origin:361.15px 130.865px" id="ellukhogkfdp" class="animable"/><path d="M247.1 91.57a.63.63 0 0 1 0 1.26.63.63 0 0 1 0-1.26Z" style="fill:#c7c7c7;transform-origin:247.1px 92.2px" id="el1t8epzc8m4y" class="animable"/><path d="M209.23 315.72a1.71 1.71 0 0 1 0 3.42 1.71 1.71 0 0 1 0-3.42Z" style="fill:#c7c7c7;transform-origin:209.23px 317.43px" id="eldiap87hrjhi" class="animable"/><path d="M434.59 186.45a1.72 1.72 0 0 1 0 3.43 1.72 1.72 0 0 1 0-3.43Z" style="fill:#c7c7c7;transform-origin:434.59px 188.165px" id="elajow1bsg75" class="animable"/><path d="M84.47 336.44a1.71 1.71 0 0 1 0 3.42 1.71 1.71 0 0 1 0-3.42Z" style="fill:#c7c7c7;transform-origin:84.47px 338.15px" id="ely9yk30bdchf" class="animable"/><path style="fill:#c7c7c7;transform-origin:231.96px 270.595px" id="el4b0q4ksrdr4" class="animable" d="m228.19 270.6 3.08.57.69 3.24.69-3.24 3.08-.57-3.07-.75-.7-3.07-.7 3.07-3.07.75z"/><path style="fill:#c7c7c7;transform-origin:297.365px 425.865px" id="eljuha1to5q9" class="animable" d="m293.6 425.87 3.08.57.69 3.24.68-3.24 3.08-.58-3.06-.74-.7-3.07-.71 3.07-3.06.75z"/><path d="M307.24 385.88a.9.9 0 0 1 0 1.79.9.9 0 0 1 0-1.79Z" style="fill:#c7c7c7;transform-origin:307.24px 386.775px" id="elkpnfc841hfl" class="animable"/><path d="M342 362.14a.9.9 0 0 1 0 1.79.9.9 0 0 1 0-1.79Z" style="fill:#c7c7c7;transform-origin:342px 363.035px" id="eldfn304lo91o" class="animable"/><path style="fill:#c7c7c7;transform-origin:235.73px 403.13px" id="el0lm4cn2tswad" class="animable" d="m231.96 403.13 3.08.57.69 3.25.69-3.25 3.08-.57-3.07-.75-.7-3.07-.7 3.07-3.07.75z"/><path d="M358.7 115.68a.9.9 0 0 1 0 1.79.9.9 0 0 1 0-1.79Z" style="fill:#c7c7c7;transform-origin:358.7px 116.575px" id="elhtcchxzo65v" class="animable"/><path d="M380.17 365a.63.63 0 0 1 0 1.26.63.63 0 0 1 0-1.26Z" style="fill:#c7c7c7;transform-origin:380.17px 365.63px" id="el48nr84yrl3k" class="animable"/><path style="fill:#c7c7c7;transform-origin:115.285px 257.615px" id="elgzqvtrde3iv" class="animable" d="m111.52 257.62 3.08.57.68 3.24.69-3.24 3.08-.57-3.06-.75-.71-3.07-.7 3.07-3.06.75z"/><path d="M75.92 306.73a.89.89 0 0 1 0 1.78.89.89 0 0 1 0-1.78Z" style="fill:#c7c7c7;transform-origin:75.92px 307.62px" id="el3eoef56tn04" class="animable"/><path d="M199 241a.89.89 0 0 1 0 1.78.89.89 0 0 1 0-1.78Z" style="fill:#c7c7c7;transform-origin:199px 241.89px" id="elo6cq6g3hfyn" class="animable"/><path d="M94.46 150.83a.64.64 0 0 1 0 1.27.64.64 0 0 1 0-1.27Z" style="fill:#c7c7c7;transform-origin:94.46px 151.465px" id="eltxh4no3fj5" class="animable"/><path d="M86.37 145a1.71 1.71 0 0 1 0 3.42 1.71 1.71 0 0 1 0-3.42Z" style="fill:#c7c7c7;transform-origin:86.37px 146.71px" id="elxc1kg9r6x7l" class="animable"/><path d="M436.24 69.49a1.71 1.71 0 0 1 0 3.42 1.71 1.71 0 0 1 0-3.42Z" style="fill:#c7c7c7;transform-origin:436.24px 71.2px" id="ela6w4zi9tg7" class="animable"/></g><g id="freepik--Planets--inject-73" class="animable" style="transform-origin:252.389px 248.745px;animation:1.5s Infinite linear floating;animation-delay:0s"><circle cx="370.95" cy="390.79" r="32.59" style="fill:#455a64;transform-origin:370.95px 390.79px;transform:rotate(-43.34deg)" class="animable" id="elfp7v5k2igwo"/><path d="M340.62 402.75a38.32 38.32 0 0 1 9.63-7.14c6.21-3.36 23.47-7.87 31.25-12.62 10.94-6.67 11.86-13 11.54-16.18a32.77 32.77 0 0 0-10.62-6.52c-.55 3.35-2.78 13.84-21.17 22-9.5 4.23-19 2.68-22.28 2.16a32.48 32.48 0 0 0 1.65 18.3Z" style="fill:#37474f;transform-origin:365.716px 381.52px" id="el3yc7wp4juos" class="animable"/><path d="M355.31 419.39A32.65 32.65 0 0 0 395.7 412a26 26 0 0 0-6-1.85c-8.91-1.42-18.19 3.54-21.54 5.79a19.14 19.14 0 0 1-12.85 3.45Z" style="fill:#37474f;transform-origin:375.505px 416.635px" id="elnydj4nunynq" class="animable"/><path d="m342.94 407.47.47.76.44.67c.34.51.68 1 1 1.49s.67.86 1 1.27l.39.46.45.51c.15.17.3.34.46.5l.56.58.56.56.5.47c.37.34.75.67 1.13 1 2.07.45 4.76 0 8.59-1.92 5.72-2.79 11.63-8.87 22.7-13.89a40.73 40.73 0 0 1 21.81-3.16 32.5 32.5 0 0 0-2.42-19.57c-2.08.09-8.69 1.58-22 14.48a85 85 0 0 1-13.55 11c-11.65 7.35-18.84 6-21.89 4.79Z" style="fill:#37474f;transform-origin:373.248px 396.55px" id="elhw5gby688mn" class="animable"/><path d="M372.49 372c.7 1.27 2.76 1.48 4.61.47s2.77-2.87 2.08-4.14-2.76-1.47-4.61-.46-2.77 2.81-2.08 4.13Z" style="fill:#263238;transform-origin:375.835px 370.168px" id="ela2t8nbbup9v" class="animable"/><path d="M381.89 373.43c.39.71 1.61.8 2.72.19s1.68-1.68 1.29-2.39-1.61-.81-2.72-.2-1.68 1.68-1.29 2.4Z" style="fill:#263238;transform-origin:383.895px 372.327px" id="elx1fzepb9vmi" class="animable"/><path d="M360.35 415.58c.6 1.09 2.39 1.25 4 .36s2.44-2.48 1.85-3.57-2.39-1.24-4-.36-2.44 2.49-1.85 3.57Z" style="fill:#263238;transform-origin:363.275px 413.977px" id="elrkvf6xopfmf" class="animable"/><path d="M366.43 416.16a1.63 1.63 0 1 0 .81-1.8 1.43 1.43 0 0 0-.81 1.8Z" style="fill:#263238;transform-origin:367.998px 415.792px" id="el82qiso9252" class="animable"/><path d="M367.12 413.06a.9.9 0 0 0 1.22.15c.49-.27.73-.77.54-1.11a.91.91 0 0 0-1.23-.15c-.48.27-.72.77-.53 1.11Z" style="fill:#263238;transform-origin:368px 412.58px" id="elrdlailwji4b" class="animable"/><path d="M387.37 411.13c.53 1 2 1.18 3.3.47s1.91-2.07 1.38-3-2-1.18-3.3-.47-1.91 2.03-1.38 3Z" style="fill:#263238;transform-origin:389.71px 409.875px" id="elnhym8l9n0q8" class="animable"/><path d="M386.18 406.78a1.29 1.29 0 1 0 .58-1.62 1.22 1.22 0 0 0-.58 1.62Z" style="fill:#263238;transform-origin:387.365px 406.294px" id="elbvkpu66p6r" class="animable"/><path d="M344.89 410.39a281.6 281.6 0 0 0 58.65-19.34c14.6-6.86 23.61-13.43 22.39-17.14s-12.17-3.76-27.6-.79c.42.65.81 1.31 1.19 2 .14.26.27.52.41.77 8.21-1.05 13.65-.57 14.39 1.69s-3.48 6-10.93 10.08A180.49 180.49 0 0 1 374 399.92a180.8 180.8 0 0 1-31 7.55c-8.39 1.11-14 .64-14.72-1.65s3.35-5.85 10.54-9.86a30.54 30.54 0 0 1-.36-3.3C323.88 399.5 314.74 406.3 316 410s12.67 3.66 28.89.39Z" style="fill:#263238;transform-origin:370.962px 391.905px" id="elfeq0kt71gpa" class="animable"/><path d="M346.73 412.62a288.17 288.17 0 0 0 28.83-7.76 289.24 289.24 0 0 0 27.78-10.49c20.28-9 33.23-18.17 31.54-23.43s-17.28-5.15-38.64-.7c.31.39.62.79.92 1.2 17.94-3.44 30.8-3.25 32.25 1.26s-9.07 12.34-25.94 20.12a261.41 261.41 0 0 1-28.29 10.9 260.13 260.13 0 0 1-29.47 7.72c-18.15 3.52-31.19 3.35-32.65-1.2s8.8-12.13 25.28-19.8c0-.51 0-1 .06-1.53-19.86 8.85-32.48 17.9-30.81 23.1s17.53 5.15 39.14.61Z" style="fill:#37474f;transform-origin:371.235px 391.458px" id="eloztq7gsy32" class="animable"/><circle cx="229.75" cy="219.34" r="19.23" style="fill:#ebebeb;transform-origin:229.75px 219.34px;transform:rotate(-18.85deg)" class="animable" id="elighidfngg5"/><path d="M248.16 224.93a22.62 22.62 0 0 0-6-3.74c-3.81-1.68-14.18-3.52-19-5.95-6.75-3.4-7.59-7.07-7.55-9a19.19 19.19 0 0 1 5.93-4.34c.48 1.94 2.29 8 13.5 12 5.79 2 11.33.68 13.21.22a19.13 19.13 0 0 1-.09 10.81Z" style="fill:#dbdbdb;transform-origin:232.297px 213.415px" id="elk2qnli25ugp" class="animable"/><path d="M240.31 235.42A19.24 19.24 0 0 1 216.2 233a15.11 15.11 0 0 1 3.45-1.37c5.17-1.26 10.86 1.21 12.94 2.38a11.3 11.3 0 0 0 7.72 1.41Z" style="fill:#dbdbdb;transform-origin:228.255px 234.93px" id="elyvdyfj7xdq" class="animable"/><path d="m247 227.82-.24.46c-.07.15-.15.28-.23.42q-.26.48-.54.93c-.17.27-.35.53-.53.79l-.21.29-.25.29-.25.32q-.14.18-.3.36t-.3.36l-.28.3c-.2.22-.4.43-.61.64-1.19.37-2.8.21-5.14-.72-3.5-1.37-7.26-4.67-14-7.09a24.05 24.05 0 0 0-12.94-.83 19.14 19.14 0 0 1 .5-11.62c1.22-.05 5.18.51 13.6 7.47a50.7 50.7 0 0 0 8.49 5.81c7.21 3.77 11.37 2.65 13.11 1.78h.12Z" style="fill:#dbdbdb;transform-origin:228.754px 222.941px" id="eldxv0t0hyetg" class="animable"/><path d="M228.74 235.05c.34-.78 1.54-1 2.68-.51s1.78 1.53 1.44 2.31-1.54 1-2.68.52-1.78-1.53-1.44-2.32Z" style="fill:#c7c7c7;transform-origin:230.8px 235.951px" id="el5rcifkxswah" class="animable"/><path d="M234.18 233.68c.19-.44.9-.55 1.59-.25s1.08.89.89 1.33-.91.56-1.59.26-1.07-.89-.89-1.34Z" style="fill:#c7c7c7;transform-origin:235.422px 234.223px" id="eluvqiyx7mxtk" class="animable"/><path d="M219.27 210.06c.29-.66 1.33-.86 2.33-.42s1.57 1.33 1.27 2-1.33.86-2.33.42-1.54-1.33-1.27-2Z" style="fill:#c7c7c7;transform-origin:221.075px 210.851px" id="elqwdfcvn93md" class="animable"/><path d="M222.81 209.4a.83.83 0 0 1 1.13-.27.84.84 0 0 1 .57 1 1 1 0 0 1-1.7-.74Z" style="fill:#c7c7c7;transform-origin:223.672px 209.714px" id="eld6cz13z059" class="animable"/><path d="M223.38 211.18a.53.53 0 0 1 .71-.15c.3.13.46.41.37.62a.52.52 0 0 1-.71.16.53.53 0 0 1-.37-.63Z" style="fill:#c7c7c7;transform-origin:223.926px 211.42px" id="els290qom113c" class="animable"/><path d="M235.38 211.23a1.64 1.64 0 1 1 1 1.71 1.42 1.42 0 0 1-1-1.71Z" style="fill:#c7c7c7;transform-origin:236.993px 211.425px" id="eluj860uj915r" class="animable"/><path d="M234.92 213.85a.76.76 0 0 1 1.39.61.76.76 0 0 1-1.39-.61Z" style="fill:#c7c7c7;transform-origin:235.615px 214.155px" id="elrhvqplgbpfq" class="animable"/><circle cx="94.75" cy="85.63" r="19.23" style="fill:#1a1a1a;transform-origin:94.75px 85.63px;transform:rotate(-21.82deg)" class="animable" id="el5criezlsoa9"/><circle cx="94.75" cy="85.63" r="19.23" style="opacity:.1;transform-origin:94.75px 85.63px;transform:rotate(-21.82deg)" class="animable" id="elg7xqh3vqfb7"/><g style="opacity:.1;transform-origin:94.7498px 86.5294px" class="animable" id="elk8w5ex933y"><path d="M113.16 91.22a22.73 22.73 0 0 0-6-3.74C103.34 85.8 93 84 88.17 81.54c-6.75-3.41-7.59-7.08-7.55-9a19.11 19.11 0 0 1 5.94-4.34c.48 1.94 2.28 8 13.49 12 5.79 2 11.33.67 13.21.21a19.13 19.13 0 0 1-.1 10.81Z" id="eli7npw597pl" class="animable" style="transform-origin:97.3045px 79.71px"/><path d="M105.3 101.71a19.26 19.26 0 0 1-24.11-2.43 15.3 15.3 0 0 1 3.45-1.37c5.17-1.26 10.87 1.22 13 2.38a11.27 11.27 0 0 0 7.66 1.42Z" id="elumljo1tm36" class="animable" style="transform-origin:93.245px 101.21px"/><path d="M112 94.11a5.21 5.21 0 0 1-.24.47c-.07.14-.14.28-.22.42-.18.31-.36.62-.55.92s-.34.54-.53.8l-.21.28a3.81 3.81 0 0 1-.24.32l-.24.32-.3.37-.31.35-.27.31c-.2.22-.41.43-.62.63-1.2.36-2.8.2-5.15-.72-3.49-1.37-7.26-4.67-14-7.1a24.12 24.12 0 0 0-12.93-.83A19.14 19.14 0 0 1 76.68 79c1.23-.05 5.18.51 13.61 7.47a49.32 49.32 0 0 0 8.49 5.81C106 96.1 110.15 95 111.89 94.1h.11Z" id="elx0somya7lfa" class="animable" style="transform-origin:93.7547px 89.2376px"/></g><g style="opacity:.1;transform-origin:93.9103px 89.609px" class="animable" id="els0msc6aqhf"><path d="M93.73 101.35c.34-.79 1.54-1 2.68-.52s1.79 1.53 1.45 2.31-1.55 1-2.68.52-1.79-1.53-1.45-2.31Z" id="el2mlz5700qhr" class="animable" style="transform-origin:95.7954px 102.244px"/><path d="M99.18 100c.19-.44.9-.56 1.58-.26s1.08.9.89 1.34-.9.55-1.59.26-1.06-.92-.88-1.34Z" id="elnctry8r06ya" class="animable" style="transform-origin:100.416px 100.538px"/><path d="M84.26 76.36c.29-.67 1.33-.86 2.33-.43s1.57 1.33 1.28 2-1.34.86-2.34.42S84 77 84.26 76.36Z" id="elnapnl03cc0l" class="animable" style="transform-origin:86.0699px 77.1437px"/><path d="M87.8 75.69a.84.84 0 0 1 1.13-.27.73.73 0 1 1-.56 1.29.85.85 0 0 1-.57-1.02Z" id="elhdexvpjlg4b" class="animable" style="transform-origin:88.667px 76.0891px"/><path d="M88.37 77.48a.53.53 0 0 1 .71-.16c.3.14.47.41.38.63a.54.54 0 0 1-.71.15c-.3-.1-.47-.41-.38-.62Z" id="elsk6eqerj23i" class="animable" style="transform-origin:88.915px 77.7098px"/><path d="M100.38 77.52a1.63 1.63 0 1 1 1 1.72 1.42 1.42 0 0 1-1-1.72Z" id="elj1i87dtjc4o" class="animable" style="transform-origin:101.981px 77.731px"/><path d="M99.91 80.14a.76.76 0 0 1 1.39.61.76.76 0 0 1-1.39-.61Z" id="elzo7opv8h7x" class="animable" style="transform-origin:100.605px 80.445px"/></g></g><defs><filter id="active" height="200%"><feMorphology in="SourceAlpha" result="DILATED" operator="dilate" radius="2"/><feFlood flood-color="#32DFEC" flood-opacity="1" result="PINK"/><feComposite in="PINK" in2="DILATED" operator="in" result="OUTLINE"/><feMerge><feMergeNode in="OUTLINE"/><feMergeNode in="SourceGraphic"/></feMerge></filter><filter id="hover" height="200%"><feMorphology in="SourceAlpha" result="DILATED" operator="dilate" radius="2"/><feFlood flood-color="red" flood-opacity=".5" result="PINK"/><feComposite in="PINK" in2="DILATED" operator="in" result="OUTLINE"/><feMerge><feMergeNode in="OUTLINE"/><feMergeNode in="SourceGraphic"/></feMerge><feColorMatrix values="0 0 0 0 0 0 1 0 0 0 0 0 0 0 0 0 0 0 1 0"/></filter></defs></svg>